<?xml version="1.0" encoding="UTF-8" standalone="no"?>
<svg width="540px" height="100px" viewBox="0 0 540 100" version="1.1" xmlns="http://www.w3.org/2000/svg" xmlns:xlink="http://www.w3.org/1999/xlink">
    <!-- Generator: Sketch 41.2 (35397) - http://www.bohemiancoding.com/sketch -->
    <title>moscoding</title>
    <desc>Created with Sketch.</desc>
    <defs></defs>
    <g id="Page-1" stroke="none" stroke-width="1" fill="none" fill-rule="evenodd">
        <g id="moscoding" fill="#FFFFFF">
            <path d="M19.52,20.88 L19.52,78 L31.28,78 L31.28,37.92 L31.44,37.92 L45.44,78 L55.12,78 L69.12,37.52 L69.28,37.52 L69.28,78 L81.04,78 L81.04,20.88 L63.36,20.88 L50.72,60.16 L50.56,60.16 L37.2,20.88 L19.52,20.88 Z M102.16,49.68 C102.16,47.1733208 102.439997,44.7466784 103,42.4 C103.560003,40.0533216 104.453327,37.9600092 105.68,36.12 C106.906673,34.2799908 108.506657,32.8133388 110.48,31.72 C112.453343,30.6266612 114.853319,30.08 117.68,30.08 C120.506681,30.08 122.906657,30.6266612 124.88,31.72 C126.853343,32.8133388 128.453327,34.2799908 129.68,36.12 C130.906673,37.9600092 131.799997,40.0533216 132.36,42.4 C132.920003,44.7466784 133.2,47.1733208 133.2,49.68 C133.2,52.080012 132.920003,54.413322 132.36,56.68 C131.799997,58.946678 130.906673,60.9866576 129.68,62.8 C128.453327,64.6133424 126.853343,66.0666612 124.88,67.16 C122.906657,68.2533388 120.506681,68.8 117.68,68.8 C114.853319,68.8 112.453343,68.2533388 110.48,67.16 C108.506657,66.0666612 106.906673,64.6133424 105.68,62.8 C104.453327,60.9866576 103.560003,58.946678 103,56.68 C102.439997,54.413322 102.16,52.080012 102.16,49.68 Z M89.6,49.68 C89.6,53.8400208 90.2399936,57.719982 91.52,61.32 C92.8000064,64.920018 94.639988,68.05332 97.04,70.72 C99.440012,73.38668 102.386649,75.4799924 105.88,77 C109.373351,78.5200076 113.306645,79.28 117.68,79.28 C122.106689,79.28 126.053316,78.5200076 129.52,77 C132.986684,75.4799924 135.919988,73.38668 138.32,70.72 C140.720012,68.05332 142.559994,64.920018 143.84,61.32 C145.120006,57.719982 145.76,53.8400208 145.76,49.68 C145.76,45.413312 145.120006,41.4533516 143.84,37.8 C142.559994,34.1466484 140.720012,30.9600136 138.32,28.24 C135.919988,25.5199864 132.986684,23.3866744 129.52,21.84 C126.053316,20.2933256 122.106689,19.52 117.68,19.52 C113.306645,19.52 109.373351,20.2933256 105.88,21.84 C102.386649,23.3866744 99.440012,25.5199864 97.04,28.24 C94.639988,30.9600136 92.8000064,34.1466484 91.52,37.8 C90.2399936,41.4533516 89.6,45.413312 89.6,49.68 Z M162.88,59.04 L150.72,59.04 C150.666666,62.5600176 151.30666,65.5999872 152.64,68.16 C153.97334,70.7200128 155.773322,72.8266584 158.04,74.48 C160.306678,76.1333416 162.919985,77.3466628 165.88,78.12 C168.840015,78.8933372 171.893318,79.28 175.04,79.28 C178.933353,79.28 182.359985,78.8266712 185.32,77.92 C188.280015,77.0133288 190.75999,75.7466748 192.76,74.12 C194.76001,72.4933252 196.266662,70.5600112 197.28,68.32 C198.293338,66.0799888 198.8,63.6533464 198.8,61.04 C198.8,57.839984 198.120007,55.2133436 196.76,53.16 C195.399993,51.1066564 193.786676,49.4666728 191.92,48.24 C190.053324,47.0133272 188.173343,46.1200028 186.28,45.56 C184.386657,44.9999972 182.906672,44.6133344 181.84,44.4 C178.266649,43.4933288 175.373344,42.7466696 173.16,42.16 C170.946656,41.5733304 169.21334,40.9866696 167.96,40.4 C166.70666,39.8133304 165.866669,39.1733368 165.44,38.48 C165.013331,37.7866632 164.8,36.8800056 164.8,35.76 C164.8,34.5333272 165.066664,33.520004 165.6,32.72 C166.133336,31.919996 166.813329,31.253336 167.64,30.72 C168.466671,30.186664 169.386662,29.8133344 170.4,29.6 C171.413338,29.3866656 172.426662,29.28 173.44,29.28 C174.986674,29.28 176.413327,29.413332 177.72,29.68 C179.026673,29.946668 180.186662,30.3999968 181.2,31.04 C182.213338,31.6800032 183.026664,32.5599944 183.64,33.68 C184.253336,34.8000056 184.613333,36.2133248 184.72,37.92 L196.88,37.92 C196.88,34.6133168 196.25334,31.8000116 195,29.48 C193.74666,27.1599884 192.053344,25.2533408 189.92,23.76 C187.786656,22.2666592 185.34668,21.18667 182.6,20.52 C179.85332,19.85333 176.986682,19.52 174,19.52 C171.439987,19.52 168.880013,19.8666632 166.32,20.56 C163.759987,21.2533368 161.466677,22.3199928 159.44,23.76 C157.413323,25.2000072 155.77334,26.9999892 154.52,29.16 C153.26666,31.3200108 152.64,33.866652 152.64,36.8 C152.64,39.4133464 153.133328,41.6399908 154.12,43.48 C155.106672,45.3200092 156.399992,46.8533272 158,48.08 C159.600008,49.3066728 161.413323,50.3066628 163.44,51.08 C165.466677,51.8533372 167.546656,52.506664 169.68,53.04 C171.76001,53.6266696 173.813323,54.1599976 175.84,54.64 C177.866677,55.1200024 179.679992,55.6799968 181.28,56.32 C182.880008,56.9600032 184.173328,57.7599952 185.16,58.72 C186.146672,59.6800048 186.64,60.9333256 186.64,62.48 C186.64,63.9200072 186.26667,65.106662 185.52,66.04 C184.77333,66.973338 183.840006,67.706664 182.72,68.24 C181.599994,68.773336 180.400006,69.1333324 179.12,69.32 C177.839994,69.5066676 176.640006,69.6 175.52,69.6 C173.866658,69.6 172.266674,69.400002 170.72,69 C169.173326,68.599998 167.826672,67.9866708 166.68,67.16 C165.533328,66.3333292 164.613337,65.25334 163.92,63.92 C163.226663,62.58666 162.88,60.9600096 162.88,59.04 Z M244.32,40.08 L256.48,40.08 C256.106665,36.7733168 255.200007,33.8400128 253.76,31.28 C252.319993,28.7199872 250.493344,26.573342 248.28,24.84 C246.066656,23.106658 243.560014,21.7866712 240.76,20.88 C237.959986,19.9733288 234.986682,19.52 231.84,19.52 C227.466645,19.52 223.533351,20.2933256 220.04,21.84 C216.546649,23.3866744 213.600012,25.5199864 211.2,28.24 C208.799988,30.9600136 206.960006,34.1466484 205.68,37.8 C204.399994,41.4533516 203.76,45.413312 203.76,49.68 C203.76,53.8400208 204.399994,57.719982 205.68,61.32 C206.960006,64.920018 208.799988,68.05332 211.2,70.72 C213.600012,73.38668 216.546649,75.4799924 220.04,77 C223.533351,78.5200076 227.466645,79.28 231.84,79.28 C235.360018,79.28 238.586652,78.746672 241.52,77.68 C244.453348,76.613328 247.013322,75.0666768 249.2,73.04 C251.386678,71.0133232 253.14666,68.5600144 254.48,65.68 C255.81334,62.7999856 256.639998,59.5733512 256.96,56 L244.8,56 C244.319998,59.8400192 243.000011,62.9333216 240.84,65.28 C238.679989,67.6266784 235.680019,68.8 231.84,68.8 C229.013319,68.8 226.613343,68.2533388 224.64,67.16 C222.666657,66.0666612 221.066673,64.6133424 219.84,62.8 C218.613327,60.9866576 217.720003,58.946678 217.16,56.68 C216.599997,54.413322 216.32,52.080012 216.32,49.68 C216.32,47.1733208 216.599997,44.7466784 217.16,42.4 C217.720003,40.0533216 218.613327,37.9600092 219.84,36.12 C221.066673,34.2799908 222.666657,32.8133388 224.64,31.72 C226.613343,30.6266612 229.013319,30.08 231.84,30.08 C233.386674,30.08 234.86666,30.3333308 236.28,30.84 C237.69334,31.3466692 238.959994,32.0533288 240.08,32.96 C241.200006,33.8666712 242.13333,34.919994 242.88,36.12 C243.62667,37.320006 244.106666,38.6399928 244.32,40.08 Z M275.6,49.68 C275.6,47.1733208 275.879997,44.7466784 276.44,42.4 C277.000003,40.0533216 277.893327,37.9600092 279.12,36.12 C280.346673,34.2799908 281.946657,32.8133388 283.92,31.72 C285.893343,30.6266612 288.293319,30.08 291.12,30.08 C293.946681,30.08 296.346657,30.6266612 298.32,31.72 C300.293343,32.8133388 301.893327,34.2799908 303.12,36.12 C304.346673,37.9600092 305.239997,40.0533216 305.8,42.4 C306.360003,44.7466784 306.64,47.1733208 306.64,49.68 C306.64,52.080012 306.360003,54.413322 305.8,56.68 C305.239997,58.946678 304.346673,60.9866576 303.12,62.8 C301.893327,64.6133424 300.293343,66.0666612 298.32,67.16 C296.346657,68.2533388 293.946681,68.8 291.12,68.8 C288.293319,68.8 285.893343,68.2533388 283.92,67.16 C281.946657,66.0666612 280.346673,64.6133424 279.12,62.8 C277.893327,60.9866576 277.000003,58.946678 276.44,56.68 C275.879997,54.413322 275.6,52.080012 275.6,49.68 Z M263.04,49.68 C263.04,53.8400208 263.679994,57.719982 264.96,61.32 C266.240006,64.920018 268.079988,68.05332 270.48,70.72 C272.880012,73.38668 275.826649,75.4799924 279.32,77 C282.813351,78.5200076 286.746645,79.28 291.12,79.28 C295.546689,79.28 299.493316,78.5200076 302.96,77 C306.426684,75.4799924 309.359988,73.38668 311.76,70.72 C314.160012,68.05332 315.999994,64.920018 317.28,61.32 C318.560006,57.719982 319.2,53.8400208 319.2,49.68 C319.2,45.413312 318.560006,41.4533516 317.28,37.8 C315.999994,34.1466484 314.160012,30.9600136 311.76,28.24 C309.359988,25.5199864 306.426684,23.3866744 302.96,21.84 C299.493316,20.2933256 295.546689,19.52 291.12,19.52 C286.746645,19.52 282.813351,20.2933256 279.32,21.84 C275.826649,23.3866744 272.880012,25.5199864 270.48,28.24 C268.079988,30.9600136 266.240006,34.1466484 264.96,37.8 C263.679994,41.4533516 263.04,45.413312 263.04,49.68 Z M340.32,67.44 L340.32,31.44 L349.28,31.44 C352.373349,31.44 354.973323,31.8799956 357.08,32.76 C359.186677,33.6400044 360.879994,34.9066584 362.16,36.56 C363.440006,38.2133416 364.359997,40.1999884 364.92,42.52 C365.480003,44.8400116 365.76,47.4399856 365.76,50.32 C365.76,53.4666824 365.360004,56.1333224 364.56,58.32 C363.759996,60.5066776 362.69334,62.2799932 361.36,63.64 C360.02666,65.0000068 358.506675,65.9733304 356.8,66.56 C355.093325,67.1466696 353.333342,67.44 351.52,67.44 L340.32,67.44 Z M327.76,20.88 L327.76,78 L352.4,78 C356.773355,78 360.573317,77.266674 363.8,75.8 C367.026683,74.333326 369.719989,72.3200128 371.88,69.76 C374.040011,67.1999872 375.653328,64.1600176 376.72,60.64 C377.786672,57.1199824 378.32,53.2800208 378.32,49.12 C378.32,44.3733096 377.666673,40.2400176 376.36,36.72 C375.053327,33.1999824 373.240012,30.2666784 370.92,27.92 C368.599988,25.5733216 365.853349,23.8133392 362.68,22.64 C359.506651,21.4666608 356.080018,20.88 352.4,20.88 L327.76,20.88 Z M387.04,20.88 L387.04,78 L399.6,78 L399.6,20.88 L387.04,20.88 Z M410.64,20.88 L410.64,78 L422.4,78 L422.4,39.76 L422.56,39.76 L446.32,78 L458.88,78 L458.88,20.88 L447.12,20.88 L447.12,59.2 L446.96,59.2 L423.12,20.88 L410.64,20.88 Z M511.2,71.52 L512.48,78 L520.48,78 L520.48,47.12 L496.48,47.12 L496.48,56.48 L509.12,56.48 C508.746665,60.48002 507.426678,63.5333228 505.16,65.64 C502.893322,67.7466772 499.680021,68.8 495.52,68.8 C492.693319,68.8 490.293343,68.2533388 488.32,67.16 C486.346657,66.0666612 484.746673,64.6133424 483.52,62.8 C482.293327,60.9866576 481.400003,58.946678 480.84,56.68 C480.279997,54.413322 480,52.080012 480,49.68 C480,47.1733208 480.279997,44.7466784 480.84,42.4 C481.400003,40.0533216 482.293327,37.9600092 483.52,36.12 C484.746673,34.2799908 486.346657,32.8133388 488.32,31.72 C490.293343,30.6266612 492.693319,30.08 495.52,30.08 C498.560015,30.08 501.146656,30.879992 503.28,32.48 C505.413344,34.080008 506.85333,36.479984 507.6,39.68 L519.6,39.68 C519.279998,36.4266504 518.400007,33.5466792 516.96,31.04 C515.519993,28.5333208 513.693344,26.4266752 511.48,24.72 C509.266656,23.0133248 506.78668,21.7200044 504.04,20.84 C501.29332,19.9599956 498.453348,19.52 495.52,19.52 C491.146645,19.52 487.213351,20.2933256 483.72,21.84 C480.226649,23.3866744 477.280012,25.5199864 474.88,28.24 C472.479988,30.9600136 470.640006,34.1466484 469.36,37.8 C468.079994,41.4533516 467.44,45.413312 467.44,49.68 C467.44,53.8400208 468.079994,57.719982 469.36,61.32 C470.640006,64.920018 472.479988,68.05332 474.88,70.72 C477.280012,73.38668 480.226649,75.4799924 483.72,77 C487.213351,78.5200076 491.146645,79.28 495.52,79.28 C498.293347,79.28 501.039986,78.7066724 503.76,77.56 C506.480014,76.4133276 508.959989,74.4000144 511.2,71.52 Z" id="MOSCODING-outline"></path>
        </g>
    </g>
</svg>